<?xml version="1.0" standalone="no"?>
<!DOCTYPE svg PUBLIC "-//W3C//DTD SVG 20010904//EN"
 "http://www.w3.org/TR/2001/REC-SVG-20010904/DTD/svg10.dtd">
<svg version="1.0" xmlns="http://www.w3.org/2000/svg"
width="2048.000000pt" height="2048.000000pt" viewBox="0 0 900.000000 900.000000"
 preserveAspectRatio="xMidYMid meet">
<metadata>
Created by potrace 1.16, written by Peter Selinger 2001-2019
</metadata>
<g transform="translate(0.000000,1024.000000) scale(0.100000,-0.100000)"
fill="#FFA500" stroke="none">
<path d="M5060 9333 c-185 -18 -323 -57 -476 -137 -153 -80 -317 -216 -426
-353 -73 -93 -81 -106 -81 -119 0 -7 -3 -11 -7 -9 -11 7 -76 -115 -148 -275
-52 -118 -94 -301 -117 -512 l-6 -58 -654 -2 -654 -3 -30 -34 c-28 -31 -31
-41 -31 -100 0 -63 15 -410 60 -1376 10 -236 33 -736 50 -1110 17 -374 37
-804 45 -955 8 -151 14 -311 14 -355 1 -156 38 -354 64 -338 6 3 7 1 3 -6 -12
-19 50 -114 118 -179 59 -57 75 -67 99 -63 5 1 6 -3 3 -8 -7 -11 22 -23 36
-14 7 3 8 1 4 -5 -6 -11 6 -16 27 -13 4 0 7 -3 7 -8 0 -29 137 -31 2155 -31
1380 0 2060 3 2098 10 191 36 355 186 416 383 21 68 26 140 51 662 6 121 13
263 15 315 3 52 12 232 20 400 8 168 17 346 20 395 13 202 66 1312 64 1335 -1
14 1 52 4 85 4 33 16 254 28 490 19 401 20 432 4 461 -36 67 -4 64 -719 64
l-646 0 0 48 c0 118 -47 334 -107 497 -68 185 -261 490 -295 469 -7 -5 -8 -2
-3 5 9 15 -43 73 -58 64 -6 -3 -7 -1 -4 4 10 15 -109 116 -125 107 -7 -4 -10
-3 -5 1 7 8 -20 45 -34 45 -4 0 -31 16 -60 36 -49 33 -161 94 -174 94 -3 1
-24 9 -48 19 -64 28 -199 59 -302 71 -88 10 -124 10 -195 3z m211 -358 c166
-25 330 -103 450 -215 9 -8 28 -24 42 -34 15 -10 27 -25 27 -33 0 -8 5 -11 10
-8 6 3 10 2 10 -2 0 -5 27 -45 61 -88 74 -97 136 -218 177 -345 35 -110 62
-251 62 -327 l0 -53 -975 0 -975 0 5 70 c2 38 6 73 8 77 3 5 8 33 12 63 20
146 109 361 205 495 105 146 204 236 340 308 180 95 340 123 541 92z m29
-1859 c147 -20 286 -57 415 -111 61 -26 118 -49 128 -52 9 -3 17 -9 17 -13 0
-4 22 -17 48 -28 60 -26 102 -64 102 -93 0 -26 -105 -196 -129 -208 -13 -7
-40 4 -109 45 -51 30 -95 54 -97 54 -3 0 -34 14 -70 30 -37 17 -71 28 -76 25
-5 -4 -9 -2 -9 3 0 12 -176 56 -191 47 -8 -5 -10 -4 -5 4 5 8 -3 12 -26 12
-18 0 -92 2 -165 5 -134 4 -188 -5 -311 -50 -82 -31 -208 -127 -195 -150 3 -6
3 -8 -2 -4 -18 17 -103 -131 -88 -154 3 -6 1 -8 -4 -5 -22 14 -31 -130 -12
-198 29 -105 108 -206 219 -281 69 -47 171 -96 187 -90 8 3 12 2 9 -3 -3 -4 7
-14 22 -21 29 -13 217 -80 242 -86 38 -8 299 -114 333 -134 20 -12 44 -19 53
-16 8 3 13 2 10 -2 -4 -7 53 -40 91 -54 4 -2 18 -13 31 -25 13 -12 27 -21 31
-20 8 2 68 -42 145 -108 48 -40 111 -110 164 -180 4 -5 22 -46 39 -90 75 -190
66 -416 -22 -611 -34 -74 -101 -180 -129 -203 -9 -7 -13 -18 -9 -25 3 -6 3 -8
-2 -4 -4 4 -26 -8 -47 -28 -194 -175 -510 -263 -839 -235 -74 6 -168 18 -209
27 -41 10 -84 17 -95 18 -11 1 -23 5 -26 9 -3 5 -22 9 -41 10 -20 1 -34 5 -32
9 4 6 -46 22 -71 23 -5 0 -16 6 -24 13 -8 8 -22 11 -33 9 -10 -3 -16 -2 -13 2
2 4 -20 18 -49 30 -123 51 -366 224 -366 262 0 27 120 206 147 218 23 10 17
14 187 -103 43 -30 108 -69 145 -87 36 -17 77 -37 91 -44 35 -18 204 -70 275
-86 91 -20 313 -18 415 4 101 22 294 111 286 133 -3 7 0 11 7 8 20 -7 110 89
144 153 73 138 69 285 -13 422 -61 102 -155 184 -305 265 -77 41 -319 138
-337 134 -4 0 -23 6 -43 15 -79 35 -165 64 -178 59 -8 -3 -11 0 -7 7 4 6 1 11
-8 11 -14 0 -34 8 -132 52 -22 10 -43 18 -46 18 -3 0 -43 21 -89 47 -99 55
-210 143 -265 209 -21 26 -44 52 -49 58 -21 23 -83 153 -100 211 -13 41 -19
98 -20 179 -1 100 2 130 22 190 13 39 28 79 33 88 5 10 7 25 3 34 -4 11 -2 15
4 11 5 -3 20 15 33 41 30 62 199 228 270 266 30 16 58 34 62 40 4 6 8 8 8 3 0
-4 10 -1 23 7 37 24 176 66 267 81 113 17 251 18 380 1z"/>
<path d="M2505 2734 c-76 -20 -205 -83 -205 -100 0 -3 5 -2 12 2 7 4 8 3 4 -5
-4 -6 -11 -9 -16 -6 -14 9 -79 -76 -100 -132 -47 -125 -13 -253 92 -348 66
-61 129 -92 310 -156 166 -58 223 -86 265 -131 36 -37 63 -95 63 -134 0 -185
-237 -281 -484 -197 -28 9 -54 16 -58 15 -5 -1 -8 2 -8 7 0 5 -15 15 -32 22
-18 7 -51 26 -73 42 -46 31 -65 29 -86 -11 -8 -15 -17 -29 -20 -32 -3 -3 -11
-15 -18 -27 -10 -19 -7 -25 29 -50 23 -15 50 -36 61 -45 12 -9 53 -30 92 -47
189 -78 392 -80 554 -4 18 8 30 20 26 26 -3 6 -1 7 5 3 14 -8 64 38 54 50 -4
4 -2 4 4 1 6 -4 22 5 34 18 13 14 20 25 16 25 -4 0 3 10 14 22 12 13 19 31 16
40 -2 10 -1 16 4 13 15 -9 33 96 28 164 -6 85 -35 141 -105 208 -65 63 -210
137 -353 181 -175 54 -249 103 -275 182 -44 132 54 242 230 260 39 4 75 4 80
0 6 -4 36 -12 67 -18 31 -6 88 -27 127 -46 38 -20 76 -33 83 -31 7 3 28 29 47
57 l33 51 -23 18 c-40 31 -141 77 -204 94 -61 16 -253 29 -290 19z"/>
<path d="M3236 2724 c-3 -9 -6 -318 -6 -688 0 -509 3 -675 12 -684 16 -16 120
-16 136 0 9 9 12 78 12 248 0 279 7 314 74 382 122 124 330 90 406 -66 19 -39
20 -64 23 -300 2 -289 -2 -276 80 -276 91 0 87 -11 87 249 0 255 -7 309 -50
398 -46 93 -192 216 -236 199 -8 -3 -12 -2 -9 3 8 14 -71 23 -157 19 -60 -3
-90 -11 -141 -36 -35 -18 -68 -32 -73 -32 -5 0 -8 123 -6 277 1 153 0 288 -3
301 -5 20 -11 22 -74 22 -54 0 -70 -4 -75 -16z"/>
<path d="M5246 2204 c-8 -21 -9 -1292 -1 -1304 9 -15 121 -12 133 3 7 8 11
105 12 272 0 142 3 261 5 263 2 3 21 -7 40 -22 20 -16 43 -25 51 -22 8 3 13 2
9 -3 -3 -5 19 -17 47 -27 72 -24 208 -23 263 1 22 10 43 17 48 17 15 -4 90 51
136 98 48 49 100 139 109 188 2 15 7 60 9 100 13 207 -135 392 -351 438 -101
22 -226 -2 -311 -61 -21 -14 -42 -25 -46 -25 -5 0 -9 17 -9 38 0 51 -14 62
-81 62 -43 0 -58 -4 -63 -16z m581 -190 c32 -21 67 -53 79 -71 12 -18 24 -30
27 -27 3 3 4 -1 4 -8 -1 -7 5 -39 12 -70 26 -107 -15 -214 -107 -285 -52 -39
-98 -53 -180 -53 -46 0 -75 6 -110 24 -59 30 -125 100 -143 152 -17 48 -17
169 0 209 7 17 11 31 9 31 -2 1 5 11 15 21 9 11 15 23 12 26 -3 4 -2 5 2 2 4
-3 20 8 37 24 52 50 119 72 209 68 71 -3 82 -7 134 -43z"/>
<path d="M4535 2203 c-35 -9 -123 -51 -130 -63 -3 -5 -10 -8 -14 -6 -10 7 -83
-70 -125 -133 -46 -69 -67 -138 -67 -231 0 -135 73 -271 188 -347 68 -45 98
-59 87 -40 -4 6 2 4 13 -6 32 -28 142 -42 223 -30 82 13 185 57 174 74 -5 8
-3 9 5 4 18 -10 104 76 141 141 73 126 78 266 13 394 -49 98 -110 158 -208
206 -74 36 -85 38 -179 40 -56 1 -110 0 -121 -3z m231 -168 c50 -21 131 -100
139 -137 4 -15 10 -26 14 -24 14 9 12 -136 -3 -188 -19 -64 -79 -129 -151
-162 -39 -19 -67 -24 -128 -24 -85 0 -129 16 -190 70 -19 16 -37 27 -41 25 -3
-3 -4 -2 -2 1 2 3 -7 30 -21 60 -35 77 -37 172 -5 233 13 24 29 53 36 63 22
31 93 79 139 94 52 17 159 12 213 -11z"/>
<path d="M6534 2184 c-33 -13 -60 -24 -62 -24 -2 0 0 -5 4 -12 4 -6 3 -8 -3
-5 -33 20 -199 -180 -178 -213 4 -6 2 -10 -4 -10 -5 0 -14 -23 -20 -50 -60
-278 159 -531 458 -530 121 1 290 61 343 123 17 19 17 22 2 46 -37 58 -67 93
-73 84 -10 -15 -112 -70 -159 -86 -53 -18 -168 -15 -239 7 -81 26 -173 124
-173 186 0 12 7 20 18 20 9 0 153 0 320 0 288 1 304 2 322 20 55 55 -16 258
-123 357 -56 52 -133 97 -153 89 -8 -3 -13 -2 -10 3 8 13 -49 21 -136 20 -55
-1 -92 -8 -134 -25z m230 -136 c-5 -8 0 -9 14 -6 12 4 20 2 16 -3 -3 -5 2 -9
11 -9 33 0 127 -104 129 -143 1 -8 -484 -10 -491 -3 -11 10 13 59 44 91 58 60
116 84 206 85 57 0 76 -3 71 -12z"/>
<path d="M7575 2203 c-102 -25 -217 -117 -270 -216 -54 -99 -68 -208 -40 -317
17 -67 63 -153 76 -144 5 3 8 0 7 -8 -2 -7 3 -12 10 -10 8 1 11 -2 7 -7 -6
-11 73 -88 87 -83 4 1 8 -2 8 -7 0 -26 168 -71 264 -71 67 0 187 26 198 42 4
7 8 10 8 5 0 -24 140 74 140 99 0 17 -59 114 -69 114 -5 0 -26 -14 -47 -31
-39 -31 -95 -60 -124 -64 -8 -1 -38 -5 -66 -9 -54 -8 -161 7 -198 27 -78 44
-142 117 -148 171 l-3 27 322 -1 c319 -1 322 0 342 22 18 18 20 30 15 77 -26
229 -205 393 -424 390 -41 -1 -84 -4 -95 -6z m220 -171 c22 -11 54 -34 71 -51
30 -30 61 -87 52 -96 -6 -6 -489 -8 -495 -2 -14 15 70 124 106 139 86 35 100
38 161 35 40 -3 81 -12 105 -25z"/>
</g>
</svg>
